# xmcd
#
# Track frame offsets: 
#        150
#        11800
#        25600
#        40375
#        56050
#        68050
#        81100
#        94375
#        109450
#        120550
#        131875
#        144250
#        161200
#        173350
#        186625
#        198775
#        210475
#        221275
#        236350
#        247000
#        260650
#        276250
#        287125
#        299950
#
# Disc length: 4260 seconds
#
# Revision: 8
# Processed by: cddbd v1.5.2PL0 Copyright (c) Steve Scherf et al.
# Submitted via: ExactAudioCopy v1.0b1
#
DISCID=7810a218
DTITLE=Various Artist - Country U.S.A. Vol. 8 1969
DYEAR=1989
DGENRE=Country
TTITLE0=Merle Haggard - Workin' Man Blues
TTITLE1=Charley Pride - All I Have To Offer You (Is Me)
TTITLE2=Willie Nelson - Bloody Mary Morning
TTITLE3=Dolly Parton - My Blue Ridge Mountain Boy
TTITLE4=Jerry Lee Lewis - One Has My Name (The Other Has My Heart)
TTITLE5=Jack Greene - Statue Of A Fool
TTITLE6=Kenny Rogers And The First Edition - Ruby Don't Take Your Love
TTITLE6=To Town
TTITLE7=Tom T. Hall - Homecoming
TTITLE8=Tammy Wynette - The Ways To Love A Man
TTITLE9=George Jones - I'll Share My World With You
TTITLE10=Merle Haggard - Okie From Muskogee
TTITLE11=Johnny Cash - A Boy Named Sue
TTITLE12=Glen Campbell - Galveston
TTITLE13=Loretta Lynn - Woman Of The World (Leave My World Alone)
TTITLE14=Jerry Lee Lewis - She Even Woke Me Up To Say Goodbye
TTITLE15=Conway Twitty - Darling You Know I Wouldn't Lie
TTITLE16=Porter Wagoner And Dolly Parton - Just Someone I Used To Know
TTITLE17=Bobby Bare - (Margie's At) The Lincoln Park Inn
TTITLE18=Johnny Cash - Daddy Sang Bass
TTITLE19=Tom T. Hall - Ballad Of Forty Dollars
TTITLE20=Merle Haggard - Hungry Eyes
TTITLE21=Tammy Wynette - Singing My Song
TTITLE22=Sonny James - Since I Met You Baby
TTITLE23=Elvis Presley - Suspicious Minds
EXTD=YEAR: 1969
EXTT0=
EXTT1=
EXTT2=
EXTT3=
EXTT4=
EXTT5=
EXTT6=
EXTT7=
EXTT8=
EXTT9=
EXTT10=
EXTT11=
EXTT12=
EXTT13=
EXTT14=
EXTT15=
EXTT16=
EXTT17=
EXTT18=
EXTT19=
EXTT20=
EXTT21=
EXTT22=
EXTT23=
PLAYORDER=
